<svg width="33" height="20" viewBox="0 0 33 20" fill="none" xmlns="http://www.w3.org/2000/svg">
<path d="M13.4429 3.09528C12.0143 3.09528 10.7524 3.81432 10 4.90956C9.24767 3.81432 7.98574 3.09528 6.55717 3.09528C4.25241 3.09528 2.38098 4.9667 2.38098 7.27146C2.38098 12.362 10 16.9381 10 16.9381C10 16.9381 17.6191 12.362 17.6191 7.27146C17.6191 4.9667 15.7477 3.09528 13.4429 3.09528Z" fill="url(#paint0_radial_11_849)"/>
<path opacity="0.5" d="M15.1714 3.4668C17.4571 7.10965 15.3524 11.8906 12.8238 13.2477C10.0333 14.7477 8.12376 14.043 4.17139 11.8002C6.42376 14.7858 9.99995 16.9335 9.99995 16.9335C9.99995 16.9335 17.619 12.3572 17.619 7.2668C17.619 5.58108 16.6142 4.12394 15.1714 3.4668Z" fill="url(#paint1_radial_11_849)"/>
<path opacity="0.5" d="M13.4429 3.09528C12.0143 3.09528 10.7524 3.81432 10 4.90956C9.24767 3.81432 7.98574 3.09528 6.55717 3.09528C4.25241 3.09528 2.38098 4.9667 2.38098 7.27146C2.38098 12.362 10 16.9381 10 16.9381C10 16.9381 17.6191 12.362 17.6191 7.27146C17.6191 4.9667 15.7477 3.09528 13.4429 3.09528Z" fill="url(#paint2_radial_11_849)"/>
<path opacity="0.5" d="M13.4429 3.09528C12.0143 3.09528 10.7524 3.81432 10 4.90956C9.24767 3.81432 7.98574 3.09528 6.55717 3.09528C4.25241 3.09528 2.38098 4.9667 2.38098 7.27146C2.38098 12.362 10 16.9381 10 16.9381C10 16.9381 17.6191 12.362 17.6191 7.27146C17.6191 4.9667 15.7477 3.09528 13.4429 3.09528Z" fill="url(#paint3_radial_11_849)"/>
<path opacity="0.24" d="M8.95721 4.79067C9.37621 5.77639 8.44762 7.11448 6.88099 7.77639C5.31432 8.43831 3.70957 8.18115 3.29052 7.2002C2.87147 6.21925 3.80004 4.87639 5.36671 4.21448C6.93337 3.55258 8.53812 3.80495 8.95721 4.79067Z" fill="url(#paint4_radial_11_849)"/>
<path opacity="0.24" d="M14.0619 3.99073C14.6571 4.64787 14.2905 5.94787 13.2476 6.89073C12.2047 7.83358 10.8761 8.06692 10.281 7.40977C9.68573 6.75263 10.0524 5.45263 11.0952 4.50978C12.1381 3.56692 13.4666 3.33358 14.0619 3.99073Z" fill="url(#paint5_radial_11_849)"/>
<path opacity="0.32" d="M13.5191 4.20479C15.6143 4.91908 17.6143 8.01432 14.2334 11.8715C12.2096 14.181 10.0001 15.3476 7.19055 14.8905C8.70959 16.1571 10.0048 16.9381 10.0048 16.9381C10.0048 16.9381 17.6239 12.362 17.6239 7.27146C17.6191 4.9667 15.7477 3.09528 13.4429 3.09528C12.0143 3.09528 10.7524 3.81432 10.0001 4.90956C10.0001 4.90956 11.9858 3.68098 13.5191 4.20479Z" fill="url(#paint6_linear_11_849)"/>
<path d="M23 17.619C27.2079 17.619 30.6191 14.2078 30.6191 9.99997C30.6191 5.7921 27.2079 2.38092 23 2.38092C18.7921 2.38092 15.381 5.7921 15.381 9.99997C15.381 14.2078 18.7921 17.619 23 17.619Z" fill="url(#paint7_radial_11_849)"/>
<path opacity="0.5" d="M23 17.619C27.2079 17.619 30.6191 14.2078 30.6191 9.99997C30.6191 5.7921 27.2079 2.38092 23 2.38092C18.7921 2.38092 15.381 5.7921 15.381 9.99997C15.381 14.2078 18.7921 17.619 23 17.619Z" fill="url(#paint8_radial_11_849)"/>
<path opacity="0.5" d="M23 17.619C27.2079 17.619 30.6191 14.2078 30.6191 9.99997C30.6191 5.7921 27.2079 2.38092 23 2.38092C18.7921 2.38092 15.381 5.7921 15.381 9.99997C15.381 14.2078 18.7921 17.619 23 17.619Z" fill="url(#paint9_radial_11_849)"/>
<path opacity="0.5" d="M23 17.619C27.2079 17.619 30.6191 14.2078 30.6191 9.99997C30.6191 5.7921 27.2079 2.38092 23 2.38092C18.7921 2.38092 15.381 5.7921 15.381 9.99997C15.381 14.2078 18.7921 17.619 23 17.619Z" fill="url(#paint10_radial_11_849)"/>
<path d="M22.9999 15.0666C20.8047 15.0666 20.1047 12.7142 20.7714 13.0809C21.6666 13.5761 22.238 13.6238 22.9999 13.6238C23.7618 13.6238 24.3285 13.5761 25.2285 13.0809C25.8952 12.7142 25.1952 15.0666 22.9999 15.0666Z" fill="#643800"/>
<path d="M25.2286 13.081C24.3334 13.5762 23.7619 13.6238 23 13.6238C22.2381 13.6238 21.6715 13.5762 20.7715 13.081C20.5381 12.9524 20.4715 13.1524 20.5762 13.4715C20.5762 13.4667 20.6095 13.1238 20.9238 13.3619C20.9238 13.3619 22.081 14.0572 22.9953 14.0572C23.9095 14.0572 25.0667 13.3619 25.0667 13.3619C25.381 13.1286 25.4143 13.4667 25.4143 13.4715C25.5286 13.1524 25.4619 12.9524 25.2286 13.081Z" fill="url(#paint11_linear_11_849)"/>
<path d="M21.3381 7.21902C21.3809 6.91427 21.0762 6.68095 20.5143 6.60952C20.0333 6.54285 18.9524 6.66665 18.1 7.5C17.9428 7.65237 18.1381 7.77617 18.2809 7.68095C18.7762 7.3619 20.0333 7.03807 20.9476 7.2619C21.319 7.35712 21.3381 7.21902 21.3381 7.21902Z" fill="url(#paint12_linear_11_849)"/>
<path d="M24.6619 7.21901C24.6191 6.91424 24.9238 6.68091 25.4857 6.60949C25.9667 6.54756 27.0476 6.66661 27.9 7.49996C28.0572 7.65234 27.8619 7.77614 27.7191 7.68091C27.2238 7.36186 25.9667 7.03806 25.0524 7.26186C24.681 7.35709 24.6619 7.21901 24.6619 7.21901Z" fill="url(#paint13_linear_11_849)"/>
<path d="M26.1572 9.07616C26.1572 9.07616 27.4144 9.29521 27.6953 10.2762C27.7144 10.3381 27.7191 10.4047 27.7144 10.4666C27.7048 10.5952 27.5763 10.719 27.362 10.5809C26.0287 9.71903 25.2049 10.019 24.5906 10.2286C24.3525 10.3095 24.162 10.0571 24.2477 9.8571C24.2715 9.79998 24.2906 9.73808 24.3287 9.68568C24.9001 8.85235 26.1572 9.07616 26.1572 9.07616Z" fill="url(#paint14_radial_11_849)"/>
<path d="M26.1048 9.37618C26.1048 9.37618 27.1286 9.55238 27.7096 10.3905C27.7048 10.3524 27.7 10.3143 27.6905 10.2762C27.4096 9.29523 26.1524 9.07618 26.1524 9.07618C26.1524 9.07618 24.9 8.85238 24.3191 9.68095C24.2953 9.71428 24.281 9.7476 24.2667 9.78095C25.0858 9.19048 26.1048 9.37618 26.1048 9.37618Z" fill="url(#paint15_linear_11_849)"/>
<path d="M19.8429 9.07616C19.8429 9.07616 18.5858 9.29521 18.3048 10.2762C18.2858 10.3381 18.281 10.4047 18.2858 10.4666C18.2953 10.5952 18.4239 10.719 18.6382 10.5809C19.9715 9.71903 20.7953 10.019 21.4096 10.2286C21.6477 10.3095 21.8382 10.0571 21.7524 9.8571C21.7286 9.79998 21.7096 9.73808 21.6715 9.68568C21.1001 8.85235 19.8429 9.07616 19.8429 9.07616Z" fill="url(#paint16_radial_11_849)"/>
<path d="M19.8953 9.37618C19.8953 9.37618 18.8715 9.55238 18.2905 10.3905C18.2953 10.3524 18.3001 10.3143 18.3096 10.2762C18.5905 9.29523 19.8477 9.07618 19.8477 9.07618C19.8477 9.07618 21.1001 8.85238 21.681 9.68095C21.7048 9.71428 21.7191 9.7476 21.7334 9.78095C20.9143 9.19048 19.8953 9.37618 19.8953 9.37618Z" fill="url(#paint17_linear_11_849)"/>
<defs>
<radialGradient id="paint0_radial_11_849" cx="0" cy="0" r="1" gradientUnits="userSpaceOnUse" gradientTransform="translate(7.82066 6.95638) rotate(-29.408) scale(11.922 9.45717)">
<stop offset="0.2479" stop-color="#FF0000"/>
<stop offset="0.8639" stop-color="#C20000"/>
</radialGradient>
<radialGradient id="paint1_radial_11_849" cx="0" cy="0" r="1" gradientUnits="userSpaceOnUse" gradientTransform="translate(8.11545 6.22515) rotate(-29.408) scale(10.2644 8.14232)">
<stop offset="0.2479" stop-color="#FF0000"/>
<stop offset="1" stop-color="#C20000"/>
</radialGradient>
<radialGradient id="paint2_radial_11_849" cx="0" cy="0" r="1" gradientUnits="userSpaceOnUse" gradientTransform="translate(7.82066 6.95638) rotate(-29.408) scale(11.922 9.45717)">
<stop stop-color="white" stop-opacity="0.25"/>
<stop offset="1" stop-color="white" stop-opacity="0"/>
</radialGradient>
<radialGradient id="paint3_radial_11_849" cx="0" cy="0" r="1" gradientUnits="userSpaceOnUse" gradientTransform="translate(12.1064 11.0036) rotate(-26.296) scale(8.70258 4.30032)">
<stop stop-color="#BD2719" stop-opacity="0.25"/>
<stop offset="1" stop-color="#BD2719" stop-opacity="0"/>
</radialGradient>
<radialGradient id="paint4_radial_11_849" cx="0" cy="0" r="1" gradientUnits="userSpaceOnUse" gradientTransform="translate(6.12292 5.99542) rotate(-21.6908) scale(3.09377 1.9218)">
<stop stop-color="white"/>
<stop offset="1" stop-color="white" stop-opacity="0"/>
</radialGradient>
<radialGradient id="paint5_radial_11_849" cx="0" cy="0" r="1" gradientUnits="userSpaceOnUse" gradientTransform="translate(12.1671 5.70518) rotate(-40.7634) scale(2.56147 1.59125)">
<stop stop-color="white"/>
<stop offset="1" stop-color="white" stop-opacity="0"/>
</radialGradient>
<linearGradient id="paint6_linear_11_849" x1="11.5723" y1="22.3748" x2="13.0486" y2="2.47004" gradientUnits="userSpaceOnUse">
<stop stop-color="#860805"/>
<stop offset="1" stop-color="#BD2719" stop-opacity="0"/>
</linearGradient>
<radialGradient id="paint7_radial_11_849" cx="0" cy="0" r="1" gradientUnits="userSpaceOnUse" gradientTransform="translate(21.501 6.91222) scale(9.1914 9.1914)">
<stop stop-color="#FFE030"/>
<stop offset="1" stop-color="#FFB92E"/>
</radialGradient>
<radialGradient id="paint8_radial_11_849" cx="0" cy="0" r="1" gradientUnits="userSpaceOnUse" gradientTransform="translate(21.501 6.91222) scale(7.23128 7.23127)">
<stop stop-color="#FFEA5F"/>
<stop offset="1" stop-color="#FFBC47" stop-opacity="0"/>
</radialGradient>
<radialGradient id="paint9_radial_11_849" cx="0" cy="0" r="1" gradientUnits="userSpaceOnUse" gradientTransform="translate(18.8491 11.8954) rotate(-2.7703) scale(3.20475 2.53575)">
<stop stop-color="#FF4C00"/>
<stop offset="0.1542" stop-color="#FF4C00"/>
<stop offset="0.1795" stop-color="#FF4C00"/>
<stop offset="0.3996" stop-color="#FB4C0B" stop-opacity="0.7318"/>
<stop offset="0.7799" stop-color="#EF4B27" stop-opacity="0.2683"/>
<stop offset="1" stop-color="#E74A3A" stop-opacity="0"/>
</radialGradient>
<radialGradient id="paint10_radial_11_849" cx="0" cy="0" r="1" gradientUnits="userSpaceOnUse" gradientTransform="translate(27.1488 11.8954) rotate(-177.23) scale(3.20475 2.53575)">
<stop stop-color="#FF4C00"/>
<stop offset="0.1542" stop-color="#FF4C00"/>
<stop offset="0.1795" stop-color="#FF4C00"/>
<stop offset="0.3996" stop-color="#FB4C0B" stop-opacity="0.7318"/>
<stop offset="0.7799" stop-color="#EF4B27" stop-opacity="0.2683"/>
<stop offset="1" stop-color="#E74A3A" stop-opacity="0"/>
</radialGradient>
<linearGradient id="paint11_linear_11_849" x1="22.9999" y1="12.2122" x2="22.9999" y2="14.0042" gradientUnits="userSpaceOnUse">
<stop offset="0.00132565" stop-color="#3C2200"/>
<stop offset="1" stop-color="#512D00"/>
</linearGradient>
<linearGradient id="paint12_linear_11_849" x1="19.6771" y1="7.5127" x2="19.7839" y2="6.717" gradientUnits="userSpaceOnUse">
<stop offset="0.00132565" stop-color="#3C2200"/>
<stop offset="1" stop-color="#7A4400"/>
</linearGradient>
<linearGradient id="paint13_linear_11_849" x1="26.3227" y1="7.51271" x2="26.2159" y2="6.71701" gradientUnits="userSpaceOnUse">
<stop offset="0.00132565" stop-color="#3C2200"/>
<stop offset="1" stop-color="#7A4400"/>
</linearGradient>
<radialGradient id="paint14_radial_11_849" cx="0" cy="0" r="1" gradientUnits="userSpaceOnUse" gradientTransform="translate(26.0341 9.78253) rotate(9.98082) scale(1.36928 0.660665)">
<stop offset="0.00132565" stop-color="#7A4400"/>
<stop offset="1" stop-color="#643800"/>
</radialGradient>
<linearGradient id="paint15_linear_11_849" x1="26.2322" y1="8.68063" x2="26.0838" y2="9.55275" gradientUnits="userSpaceOnUse">
<stop offset="0.00132565" stop-color="#3C2200"/>
<stop offset="1" stop-color="#512D00"/>
</linearGradient>
<radialGradient id="paint16_radial_11_849" cx="0" cy="0" r="1" gradientUnits="userSpaceOnUse" gradientTransform="translate(19.9858 9.76081) rotate(170.019) scale(1.36928 0.660665)">
<stop offset="0.00132565" stop-color="#7A4400"/>
<stop offset="1" stop-color="#643800"/>
</radialGradient>
<linearGradient id="paint17_linear_11_849" x1="19.7552" y1="8.67315" x2="19.9036" y2="9.5453" gradientUnits="userSpaceOnUse">
<stop offset="0.00132565" stop-color="#3C2200"/>
<stop offset="1" stop-color="#512D00"/>
</linearGradient>
</defs>
</svg>
