<svg width="20" height="20" viewBox="0 0 20 20" fill="none" xmlns="http://www.w3.org/2000/svg">
<g clip-path="url(#clip0_11_797)">
<path d="M1.21088 0.0390625C4.37576 0.0390625 7.54064 0.0390625 10.7238 0.0573693C10.7422 3.64215 10.7423 7.20863 10.7245 10.7781C9.42276 10.781 8.1391 10.781 6.84835 10.781C6.84835 11.7549 6.84835 12.6904 6.84501 13.6446C6.84463 14.0591 6.8476 14.4549 6.84768 14.8684C6.8495 15.2593 6.85422 15.6327 6.85317 16.0241C6.84792 16.4264 6.84844 16.8106 6.84679 17.2124C6.8445 17.7735 6.84438 18.3169 6.82557 18.8627C4.9414 18.8642 3.07592 18.8632 1.21069 18.8443C1.21093 12.5639 1.21091 6.30147 1.21088 0.0390625ZM4.24208 12.8771C4.46944 12.8771 4.69713 12.8696 4.92404 12.8797C5.06832 12.8862 5.11483 12.8401 5.11286 12.6927C5.10507 12.1081 5.11009 11.5234 5.10883 10.9388C5.10873 10.8901 5.09727 10.8414 5.09181 10.7983C4.6998 10.7983 4.32597 10.7983 3.94662 10.7983C3.94662 11.4923 3.94662 12.172 3.94662 12.877C4.03902 12.877 4.12164 12.877 4.24208 12.8771ZM6.84335 7.83203C6.84335 8.12086 6.84335 8.4097 6.84335 8.69408C7.2527 8.69408 7.62649 8.69408 8.00687 8.69408C8.00687 8.00045 8.00687 7.32076 8.00687 6.6176C7.6425 6.6176 7.28696 6.61357 6.93189 6.62464C6.9008 6.62561 6.84862 6.72516 6.84734 6.77988C6.83946 7.11742 6.84337 7.45524 6.84335 7.83203ZM3.93663 7.51953C3.93663 7.91199 3.93663 8.30445 3.93663 8.69394C4.34566 8.69394 4.71881 8.69394 5.10882 8.69394C5.10882 8.0254 5.11017 7.37075 5.10488 6.71614C5.10461 6.68292 5.04757 6.62208 5.01605 6.62148C4.66153 6.61469 4.30683 6.61718 3.93662 6.61718C3.93662 6.92357 3.93662 7.20202 3.93663 7.51953ZM3.93688 16.1133C3.93688 16.4156 3.93688 16.7179 3.93688 17.0237C4.34001 17.0237 4.71345 17.0237 5.09785 17.0237C5.09785 16.3347 5.09785 15.6569 5.09785 14.9718C4.70796 14.9718 4.32971 14.9718 3.93687 14.9718C3.93687 15.3489 3.93687 15.7115 3.93688 16.1133ZM5.10935 3.41797C5.10935 3.10222 5.10935 2.78648 5.10935 2.46843C4.70642 2.46843 4.3326 2.46843 3.948 2.46843C3.948 3.15731 3.948 3.83494 3.948 4.52001C4.33709 4.52001 4.71497 4.52001 5.10934 4.52001C5.10934 4.15595 5.10934 3.80649 5.10935 3.41797ZM8.01614 3.6914C8.01614 3.28521 8.01614 2.87902 8.01614 2.46801C7.61369 2.46801 7.24023 2.46801 6.85527 2.46801C6.85527 3.15665 6.85527 3.83447 6.85527 4.52063C7.24439 4.52063 7.62261 4.52063 8.01615 4.52063C8.01615 4.2479 8.01615 3.98918 8.01614 3.6914Z" fill="#3CA8FD"/>
<path d="M0.0390625 18.8855C0.417382 18.8669 0.795701 18.8667 1.19225 18.8643C3.07597 18.8632 4.94145 18.8642 6.84316 18.8651C8.53904 18.8657 10.1987 18.866 11.8584 18.8675C12.1771 18.8678 12.4959 18.8725 12.8139 18.8929C12.813 19.2868 12.8127 19.6629 12.8125 20.0391C8.55469 20.0391 4.29687 20.0391 0.0390625 20.0391C0.0390625 19.6581 0.0390625 19.2809 0.0390625 18.8855Z" fill="#04DB7B"/>
<path d="M12.8308 20.0391C12.8128 19.663 12.813 19.2869 12.8129 18.8896C12.8125 18.8685 12.8104 18.8619 12.8287 18.8641C13.5939 18.8666 14.3407 18.8678 15.0876 18.867C16.3084 18.8658 17.5292 18.8633 18.75 18.8614C19.1675 18.8633 19.585 18.8653 20.0208 18.8672C20.0391 19.257 20.0391 19.6469 20.0391 20.0391C17.6424 20.0391 15.2458 20.0391 12.8308 20.0391Z" fill="#0DCA71"/>
<path d="M10.7245 10.7781C11.4204 10.7773 12.0983 10.7796 12.7943 10.8027C12.8124 11.6099 12.8147 12.3964 12.8106 13.1828C12.8098 13.3436 12.7854 13.5043 12.7537 13.6665C11.1815 13.6687 9.62732 13.6725 8.0732 13.6681C7.6649 13.667 7.25666 13.6407 6.84839 13.626C6.84839 12.6904 6.84839 11.7549 6.84839 10.781C8.13914 10.781 9.4228 10.781 10.7245 10.7781Z" fill="#DCEEFE"/>
<path d="M12.8136 18.8718C12.4959 18.8725 12.1772 18.8678 11.8584 18.8675C10.1987 18.866 8.53907 18.8657 6.86188 18.8626C6.84447 18.3169 6.84459 17.7735 6.86399 17.2104C8.8468 17.1891 10.8103 17.1875 12.776 17.2023C12.7895 17.2881 12.8106 17.3575 12.811 17.427C12.8132 17.9053 12.8111 18.3836 12.8104 18.8618C12.8104 18.8618 12.8125 18.8685 12.8136 18.8718Z" fill="#DCEEFE"/>
<path d="M12.7738 17.1859C10.8103 17.1875 8.84671 17.1891 6.86606 17.1927C6.84844 16.8106 6.84792 16.4264 6.86921 16.0266C7.16911 16.0004 7.44718 15.9811 7.72529 15.9806C9.2467 15.9776 10.7681 15.9785 12.2895 15.9802C12.4636 15.9804 12.6377 15.9937 12.8124 16.0043C12.813 16.0077 12.8127 16.0143 12.8126 16.0328C12.814 16.4262 12.8156 16.8012 12.8064 17.1787C12.7883 17.1829 12.7811 17.1844 12.7738 17.1859Z" fill="#9CCEFD"/>
<path d="M6.845 13.6446C7.25662 13.6407 7.66486 13.667 8.07316 13.6681C9.62728 13.6725 11.1814 13.6687 12.7638 13.6686C12.7988 13.6701 12.8055 13.6709 12.8123 13.69C12.8135 14.0843 12.8148 14.4602 12.7976 14.838C11.3425 14.8406 9.90574 14.8406 8.46902 14.8424C7.92953 14.8431 7.39005 14.8479 6.85058 14.8508C6.8476 14.455 6.84463 14.0591 6.845 13.6446Z" fill="#9CCEFD"/>
<path d="M6.84778 14.8684C7.39016 14.8479 7.92963 14.8431 8.46912 14.8424C9.90584 14.8406 11.3426 14.8406 12.7973 14.84C12.8153 14.8401 12.8129 14.8432 12.8128 14.8615C12.8124 15.2536 12.8122 15.6272 12.8119 16.0009C12.6378 15.9937 12.4637 15.9804 12.2896 15.9802C10.7682 15.9785 9.2468 15.9776 7.72539 15.9806C7.44728 15.9811 7.16921 16.0004 6.87508 16.0085C6.85432 15.6327 6.8496 15.2593 6.84778 14.8684Z" fill="#DCEEFE"/>
<path d="M14.3732 10.7776C14.1396 10.4079 13.9066 10.0379 13.6724 9.66861C13.1948 8.91575 12.7006 8.17283 12.2457 7.40654C12.03 7.04319 11.9556 6.62419 11.948 6.19206C11.9393 5.69781 11.9956 5.22306 12.1862 4.76361C12.4484 4.13163 12.8822 3.65176 13.4479 3.27802C14.0912 2.85304 14.8082 2.69206 15.5562 2.78273C16.7336 2.92547 17.6036 3.55582 18.1428 4.6145C18.3221 4.96665 18.4076 5.34992 18.4457 5.75178C18.5025 6.34972 18.4015 6.91396 18.1449 7.44124C17.9678 7.80526 17.7209 8.13592 17.4991 8.47752C17.007 9.23524 16.5111 9.99046 16.003 10.7643C15.9445 10.8351 15.8943 10.8847 15.8557 10.9421C15.6404 11.2624 15.4278 11.5845 15.1983 11.93C14.9675 11.5826 14.7527 11.2547 14.5319 10.9309C14.4913 10.8714 14.4267 10.8283 14.3732 10.7776ZM16.3244 5.93156C16.3122 5.86775 16.3036 5.80299 16.2872 5.74028C16.1348 5.15704 15.5273 4.79467 14.9388 4.93466C14.3536 5.07385 13.9741 5.65518 14.0892 6.23623C14.2092 6.84239 14.718 7.21386 15.3434 7.15175C15.9168 7.09479 16.3286 6.59794 16.3244 5.93156Z" fill="#FC3636"/>
<path d="M14.3551 10.7792C14.4267 10.8283 14.4913 10.8714 14.5318 10.9309C14.7526 11.2547 14.9675 11.5825 15.1983 11.9299C15.4277 11.5845 15.6403 11.2624 15.8557 10.9421C15.8943 10.8847 15.9445 10.8351 16.0025 10.778C16.9219 10.7741 17.8282 10.7741 18.7493 10.7741C18.7493 11.7428 18.7493 12.6883 18.7284 13.652C16.7425 13.6707 14.7775 13.6712 12.8124 13.6717C12.8056 13.6708 12.7988 13.67 12.782 13.6671C12.7855 13.5043 12.8098 13.3436 12.8107 13.1827C12.8147 12.3963 12.8125 11.6099 12.8124 10.8056C13.3205 10.7854 13.8287 10.7832 14.3551 10.7792Z" fill="#D0E8FE"/>
<path d="M12.7759 17.2023C12.7811 17.1844 12.7883 17.1829 12.8241 17.1815C14.816 17.1721 16.7794 17.1626 18.7429 17.1531C18.7452 17.7106 18.7476 18.2682 18.7499 18.8436C17.5291 18.8633 16.3083 18.8658 15.0875 18.867C14.3407 18.8678 13.5938 18.8666 12.8287 18.8641C12.811 18.3836 12.8131 17.9053 12.8109 17.4271C12.8105 17.3576 12.7895 17.2881 12.7759 17.2023Z" fill="#D0E8FE"/>
<path d="M12.8124 13.69C14.7775 13.6712 16.7425 13.6707 18.7255 13.67C18.7456 14.0482 18.7477 14.4268 18.7291 14.823C16.7432 14.8416 14.7781 14.8423 12.8129 14.8431C12.8129 14.8431 12.8153 14.8401 12.8157 14.8381C12.8149 14.4602 12.8136 14.0842 12.8124 13.69Z" fill="#7FC0FD"/>
<path d="M12.8127 14.8615C14.778 14.8424 16.7432 14.8416 18.7262 14.841C18.7458 15.2196 18.7474 15.598 18.7282 15.9946C16.7425 16.0133 14.7776 16.0138 12.8128 16.0143C12.8128 16.0143 12.813 16.0077 12.8124 16.0043C12.8121 15.6273 12.8123 15.2536 12.8127 14.8615Z" fill="#CFE8FE"/>
<path d="M12.8126 16.0327C14.7777 16.0138 16.7425 16.0133 18.7253 16.0124C18.7452 16.38 18.7472 16.748 18.7461 17.1345C16.7795 17.1625 14.8161 17.172 12.835 17.1788C12.8157 16.8011 12.8141 16.4262 12.8126 16.0327Z" fill="#7FC0FD"/>
</g>
<defs>
<clipPath id="clip0_11_797">
<rect width="20" height="20" fill="white"/>
</clipPath>
</defs>
</svg>
