<svg width="20" height="20" viewBox="0 0 20 20" fill="none" xmlns="http://www.w3.org/2000/svg">
<path d="M0.853923 13.8677C0.743416 13.8677 0.637435 13.9116 0.559295 13.9898C0.481155 14.0679 0.437256 14.1739 0.437256 14.2844C0.437256 14.3949 0.481155 14.5009 0.559295 14.579C0.637435 14.6572 0.743416 14.7011 0.853923 14.7011H10.8539V13.8677H0.853923ZM19.56 9.4483H12.6156V10.2816H19.56C19.6705 10.2816 19.7765 10.2377 19.8547 10.1596C19.9328 10.0815 19.9767 9.97548 19.9767 9.86497C19.9767 9.75446 19.9328 9.64848 19.8547 9.57034C19.7765 9.4922 19.6705 9.4483 19.56 9.4483Z" fill="#292F33"/>
<path d="M12.8978 5.34668L16.0878 2.15668L19.2784 5.34668V9.44834H12.8978V5.34668Z" fill="#FFCC4D"/>
<path d="M19.2783 5.80278C19.1617 5.80278 19.045 5.75834 18.9561 5.66945L16.0883 2.80167L13.2205 5.66945C13.1351 5.7549 13.0192 5.80292 12.8983 5.80292C12.7775 5.80292 12.6616 5.7549 12.5761 5.66945C12.4906 5.58399 12.4426 5.46808 12.4426 5.34722C12.4426 5.22637 12.4906 5.11046 12.5761 5.025L15.7661 1.835C15.8084 1.79267 15.8586 1.75909 15.9139 1.73618C15.9692 1.71327 16.0285 1.70148 16.0883 1.70148C16.1482 1.70148 16.2074 1.71327 16.2627 1.73618C16.318 1.75909 16.3682 1.79267 16.4105 1.835L19.6005 5.025C19.6643 5.08871 19.7077 5.1699 19.7253 5.2583C19.7429 5.34669 19.7339 5.43832 19.6994 5.52158C19.6649 5.60485 19.6065 5.67601 19.5315 5.72607C19.4566 5.77612 19.3684 5.80282 19.2783 5.80278Z" fill="#292F33"/>
<path d="M15.1766 6.25836H16.9994V9.44836H15.1766V6.25836Z" fill="#662113"/>
<path d="M13.8094 6.25836H14.7211V7.17003H13.8094V6.25836ZM17.455 6.25836H18.3667V7.17003H17.455V6.25836ZM17.455 7.62558H18.3667V8.53725H17.455V7.62558Z" fill="#3B88C3"/>
<path d="M5.85388 2.92169L1.245 7.53058V13.8678H10.4628V7.53058L5.85388 2.92169Z" fill="#FFCC4D"/>
<path d="M11.0389 8.6828C10.8917 8.6828 10.7439 8.62668 10.6317 8.51391L5.85392 3.73613L1.07614 8.51391C1.02266 8.56738 0.959175 8.6098 0.889304 8.63875C0.819432 8.66769 0.744545 8.68258 0.668917 8.68258C0.593289 8.68258 0.518401 8.66769 0.44853 8.63875C0.378658 8.6098 0.315172 8.56738 0.261695 8.51391C0.208217 8.46043 0.165797 8.39694 0.136855 8.32707C0.107914 8.2572 0.0930176 8.18231 0.0930176 8.10668C0.0930176 8.03106 0.107914 7.95617 0.136855 7.8863C0.165797 7.81643 0.208217 7.75294 0.261695 7.69946L5.44669 2.51446C5.50015 2.46094 5.56363 2.41849 5.6335 2.38952C5.70338 2.36055 5.77828 2.34564 5.85392 2.34564C5.92956 2.34564 6.00446 2.36055 6.07433 2.38952C6.14421 2.41849 6.20768 2.46094 6.26114 2.51446L11.4461 7.69946C11.5269 7.77993 11.582 7.88257 11.6043 7.99438C11.6267 8.10618 11.6153 8.22211 11.5717 8.32746C11.5281 8.4328 11.4542 8.52281 11.3593 8.58607C11.2644 8.64934 11.1529 8.683 11.0389 8.6828Z" fill="#292F33"/>
<path d="M4.70166 8.6828H7.0061V13.8678H4.70166V8.6828Z" fill="#662113"/>
<path d="M2.39722 8.6828H4.12555V10.4111H2.39722V8.6828ZM2.39722 10.9872H4.12555V12.7156H2.39722V10.9872Z" fill="#3B88C3"/>
<path d="M11.9317 4.68781L6.08557 10.5528V18.6189H17.7778V10.5528L11.9317 4.68781Z" fill="#FFE8B6"/>
<path d="M18.3333 18.3378H5.55556C5.24889 18.3378 5 18.5872 5 18.895C5 19.2028 5.24889 19.4522 5.55556 19.4522H18.3333C18.64 19.4522 18.8889 19.2028 18.8889 18.895C18.8889 18.5872 18.64 18.3378 18.3333 18.3378Z" fill="#66757F"/>
<path d="M11.6666 10.5555H12.2222V18.3333H11.6666V10.5555Z" fill="#FFCC4D"/>
<path d="M7.77783 15H10.0001V18.3333H7.77783V15Z" fill="#C1694F"/>
<path d="M7.77783 11.1111H10.0001V13.3333H7.77783V11.1111ZM13.8889 11.1111H16.1112V13.3333H13.8889V11.1111ZM13.8889 15H16.1112V17.2222H13.8889V15Z" fill="#55ACEE"/>
<path d="M11.6667 10.8906C11.5567 10.8908 11.4491 10.8584 11.3576 10.7974C11.2661 10.7364 11.1948 10.6495 11.1527 10.5479C11.1106 10.4463 11.0997 10.3345 11.1213 10.2267C11.1428 10.1188 11.196 10.0198 11.2739 9.94223L14.885 6.33112L15.6706 7.11667L12.0595 10.7278C12.008 10.7795 11.9468 10.8206 11.8794 10.8485C11.812 10.8765 11.7397 10.8908 11.6667 10.8906Z" fill="#66757F"/>
<path d="M18.2689 10.8906C18.1217 10.8906 17.9739 10.8344 17.8617 10.7217L11.9317 4.79167L6.00168 10.7217C5.9482 10.7751 5.88471 10.8176 5.81484 10.8465C5.74497 10.8755 5.67008 10.8903 5.59445 10.8903C5.51883 10.8903 5.44394 10.8755 5.37407 10.8465C5.3042 10.8176 5.24071 10.7751 5.18723 10.7217C5.13375 10.6682 5.09133 10.6047 5.06239 10.5348C5.03345 10.465 5.01855 10.3901 5.01855 10.3144C5.01855 10.2388 5.03345 10.1639 5.06239 10.0941C5.09133 10.0242 5.13375 9.9607 5.18723 9.90723L11.5245 3.57C11.5779 3.51649 11.6414 3.47403 11.7113 3.44506C11.7811 3.41609 11.856 3.40118 11.9317 3.40118C12.0073 3.40118 12.0822 3.41609 12.1521 3.44506C12.222 3.47403 12.2854 3.51649 12.3389 3.57L18.6761 9.90723C18.7569 9.98769 18.812 10.0903 18.8343 10.2021C18.8567 10.3139 18.8453 10.4299 18.8017 10.5352C18.7581 10.6406 18.6841 10.7306 18.5893 10.7938C18.4944 10.8571 18.3829 10.8908 18.2689 10.8906Z" fill="#66757F"/>
</svg>
