<svg width="21" height="20" viewBox="0 0 21 20" fill="none" xmlns="http://www.w3.org/2000/svg">
<path d="M14.996 9.00001C14.652 9.00001 14.38 8.72001 14.38 8.384C14.38 8.088 14.084 7.47201 13.588 6.93601C13.1 6.41601 12.564 6.112 12.116 6.112C11.772 6.112 11.5 5.832 11.5 5.496C11.5 5.16 11.78 4.88 12.116 4.88C12.916 4.88 13.756 5.31201 14.492 6.08801C15.18 6.81601 15.62 7.72001 15.62 8.37601C15.62 8.72001 15.34 9.00001 14.996 9.00001Z" fill="#1752FD"/>
<path d="M17.8841 9C17.5401 9 17.2681 8.72 17.2681 8.384C17.2681 5.544 14.9561 3.24 12.1241 3.24C11.7801 3.24 11.5081 2.96 11.5081 2.624C11.5081 2.288 11.7801 2 12.1161 2C15.6361 2 18.5001 4.864 18.5001 8.384C18.5001 8.72 18.2201 9 17.8841 9Z" fill="#1752FD"/>
<path d="M9.74 12.36L8.26 13.84C7.948 14.152 7.452 14.152 7.132 13.848C7.044 13.76 6.956 13.68 6.868 13.592C6.044 12.76 5.3 11.888 4.636 10.976C3.98 10.064 3.452 9.152 3.068 8.248C2.692 7.336 2.5 6.464 2.5 5.632C2.5 5.088 2.596 4.568 2.788 4.088C2.98 3.6 3.284 3.152 3.708 2.752C4.22 2.248 4.78 2 5.372 2C5.596 2 5.82 2.048 6.02 2.144C6.228 2.24 6.412 2.384 6.556 2.592L8.412 5.208C8.556 5.408 8.66 5.592 8.732 5.768C8.804 5.936 8.844 6.104 8.844 6.256C8.844 6.448 8.788 6.64 8.676 6.824C8.572 7.008 8.42 7.2 8.228 7.392L7.62 8.024C7.532 8.112 7.492 8.216 7.492 8.344C7.492 8.408 7.5 8.464 7.516 8.528C7.54 8.592 7.564 8.64 7.58 8.688C7.724 8.952 7.972 9.296 8.324 9.712C8.684 10.128 9.068 10.552 9.484 10.976C9.564 11.056 9.652 11.136 9.732 11.216C10.052 11.528 10.06 12.04 9.74 12.36Z" fill="#1752FD"/>
<path d="M18.476 15.064C18.476 15.288 18.436 15.52 18.356 15.744C18.332 15.808 18.308 15.872 18.276 15.936C18.14 16.224 17.964 16.496 17.732 16.752C17.34 17.184 16.908 17.496 16.42 17.696C16.412 17.696 16.404 17.704 16.396 17.704C15.924 17.896 15.412 18 14.86 18C14.044 18 13.172 17.808 12.252 17.416C11.332 17.024 10.412 16.496 9.49996 15.832C9.18796 15.6 8.87596 15.368 8.57996 15.12L11.196 12.504C11.42 12.672 11.62 12.8 11.788 12.888C11.828 12.904 11.876 12.928 11.932 12.952C11.996 12.976 12.06 12.984 12.132 12.984C12.268 12.984 12.372 12.936 12.46 12.848L13.068 12.248C13.268 12.048 13.46 11.896 13.644 11.8C13.828 11.688 14.012 11.632 14.212 11.632C14.364 11.632 14.524 11.664 14.7 11.736C14.876 11.808 15.06 11.912 15.26 12.048L17.908 13.928C18.116 14.072 18.26 14.24 18.348 14.44C18.428 14.64 18.476 14.84 18.476 15.064Z" fill="#1752FD"/>
</svg>
