<svg width="20" height="20" viewBox="0 0 20 20" fill="none" xmlns="http://www.w3.org/2000/svg">
<path d="M12.952 1.60001H6.24798C3.33598 1.60001 1.59998 3.33601 1.59998 6.24801V12.944C1.59998 15.864 3.33598 17.6 6.24798 17.6H12.944C15.856 17.6 17.592 15.864 17.592 12.952V6.24801C17.6 3.33601 15.864 1.60001 12.952 1.60001ZM13.424 7.76001L8.88798 12.296C8.77598 12.408 8.62398 12.472 8.46398 12.472C8.30398 12.472 8.15198 12.408 8.03998 12.296L5.77598 10.032C5.54398 9.80001 5.54398 9.41601 5.77598 9.18401C6.00798 8.95201 6.39198 8.95201 6.62398 9.18401L8.46398 11.024L12.576 6.91201C12.808 6.68001 13.192 6.68001 13.424 6.91201C13.656 7.14401 13.656 7.52001 13.424 7.76001Z" fill="#0EB100"/>
</svg>
